<?xml version="1.0" standalone="no"?>
<!DOCTYPE svg PUBLIC "-//W3C//DTD SVG 20010904//EN"
 "http://www.w3.org/TR/2001/REC-SVG-20010904/DTD/svg10.dtd">
<svg version="1.0" xmlns="http://www.w3.org/2000/svg"
 width="47000.000000pt" height="47000.000000pt" viewBox="0 0 47000.000000 47000.000000"
 preserveAspectRatio="xMidYMid meet">
<metadata>
Created by potrace 1.16, written by Peter Selinger 2001-2019
</metadata>
<g transform="translate(0.000000,47000.000000) scale(4.335793,-4.319853)"
fill="#000000" stroke="none">
<path d="M6985 10862 l-901 -2 8 -78 c4 -42 6 -87 3 -99 -8 -33 -37 -45 -63
-27 -20 14 -22 24 -22 110 l0 94 -1417 0 c-780 0 -1772 -3 -2204 -7 l-786 -6
-1 -233 c-1 -158 3 -249 12 -282 7 -27 9 -60 5 -76 -4 -15 -5 -206 -3 -424 6
-448 6 -399 6 -672 1 -316 4 -614 8 -625 1 -5 4 -158 6 -340 2 -181 4 -339 4
-350 0 -11 -2 -69 -4 -130 -2 -82 1 -123 13 -160 22 -70 24 -766 2 -833 -13
-37 -13 -54 -1 -120 7 -42 13 -88 13 -102 0 -14 3 -50 8 -81 4 -32 3 -82 -2
-115 -6 -33 -12 -75 -15 -94 -16 -118 1 -1625 19 -1705 7 -29 12 -145 12 -280
1 -126 5 -253 9 -281 6 -35 5 -54 -3 -58 -17 -11 -14 -116 4 -136 14 -15 17
-83 23 -466 4 -247 5 -466 3 -487 -3 -33 -8 -41 -37 -53 -43 -18 -45 -44 -4
-44 19 0 33 -7 40 -19 6 -12 10 -117 10 -271 0 -230 -1 -251 -17 -256 -10 -3
-29 -10 -43 -16 l-25 -10 38 -19 c21 -11 42 -31 47 -45 11 -28 15 -842 5 -852
-9 -9 -84 -11 -90 -2 -2 4 -16 5 -30 2 -16 -3 -25 0 -25 9 0 7 -8 21 -17 32
-17 19 -17 20 0 14 22 -8 35 19 18 36 -10 9 -16 8 -27 -7 -13 -18 -14 -14 -14
40 -1 56 -5 117 -14 194 -5 36 -5 434 -1 505 1 22 7 52 13 67 9 21 8 29 -4 39
-21 17 -18 468 4 517 8 17 18 32 23 32 19 0 8 19 -19 35 l-28 17 -3 486 c-1
267 -4 489 -6 492 -2 4 -6 260 -9 571 -3 310 -8 791 -11 1069 -2 278 -7 820
-10 1205 -3 385 -8 1024 -12 1420 -4 396 -7 1203 -8 1792 l0 1073 -729 0 -729
0 6 -1597 c4 -879 8 -2498 9 -3598 0 -1100 3 -2023 5 -2050 l5 -50 71 6 c40 3
84 10 100 14 22 6 26 4 21 -8 -7 -19 -37 -26 -127 -29 l-67 -3 0 -1527 0
-1526 22 -51 c19 -48 18 -84 -2 -51 -7 12 -10 11 -16 -4 -10 -27 3 -255 15
-270 7 -9 8 -15 2 -18 -5 -1 -12 -20 -16 -40 l-7 -38 52 0 c43 0 53 3 57 20 7
25 12 25 29 3 13 -17 13 -17 14 0 0 24 20 22 20 -3 0 -11 5 -20 11 -20 6 0 13
9 16 20 3 11 9 20 13 20 4 0 10 -9 13 -20 5 -19 14 -20 140 -20 118 0 136 2
151 19 9 10 14 25 10 35 -4 11 0 22 12 31 27 20 34 18 34 -7 0 -19 -2 -20 -10
-8 -6 9 -10 10 -10 3 0 -24 12 -42 26 -36 8 3 14 -1 14 -10 0 -8 7 -18 16 -21
36 -14 132 2 106 17 -6 4 -18 22 -26 39 -15 30 -15 31 2 15 10 -10 22 -14 25
-10 4 3 7 -1 7 -9 0 -9 8 -18 18 -21 9 -4 26 -12 37 -20 12 -8 32 -11 49 -8
28 6 29 7 13 23 -19 18 -23 33 -7 23 6 -3 10 3 10 14 0 32 17 33 30 1 7 -16
17 -27 22 -24 15 9 78 10 78 2 0 -5 -6 -8 -14 -8 -8 0 -16 -7 -20 -15 -4 -12
5 -15 49 -15 45 0 55 3 56 18 3 36 4 42 14 44 6 2 11 -12 13 -29 l3 -33 77 -2
c42 0 86 -1 97 -1 11 0 459 1 995 2 l976 1 -1 28 c0 21 5 28 22 30 20 3 23 -1
23 -28 l0 -30 1658 2 c911 1 1735 4 1830 6 162 3 172 4 172 23 0 26 75 73 97
61 10 -6 25 -4 43 6 23 14 31 14 44 3 22 -18 20 -30 -3 -24 -11 3 -28 -4 -41
-17 -17 -17 -24 -19 -36 -10 -19 17 -44 5 -44 -20 0 -19 6 -20 176 -20 119 0
173 3 169 10 -7 12 12 40 26 40 5 0 7 -11 5 -25 -3 -17 0 -25 9 -25 8 0 12 6
9 14 -3 7 2 30 10 50 8 20 13 43 10 51 -4 8 -3 22 0 31 6 15 8 15 26 -1 11
-10 20 -28 20 -39 0 -16 9 -24 33 -31 32 -10 37 -22 22 -57 -7 -17 48 -18
1061 -18 588 0 1064 4 1059 8 -6 4 -18 22 -27 41 -14 30 -17 32 -26 15 -12
-21 -18 -18 -24 10 -2 16 4 20 42 22 57 4 100 -12 100 -37 0 -11 7 -19 16 -19
11 0 15 -6 11 -20 -5 -19 0 -20 167 -20 l173 0 0 30 c0 18 -6 30 -14 30 -7 0
-13 3 -13 8 0 4 -4 14 -10 22 -8 12 -11 12 -27 -2 -10 -9 -31 -18 -47 -20 -26
-3 -32 2 -53 45 -22 44 -23 67 -4 67 5 0 20 -18 35 -40 33 -50 66 -55 66 -11
0 36 15 48 29 24 8 -15 14 -16 40 -6 37 13 69 7 94 -19 17 -18 18 -21 3 -37
-22 -24 -21 -28 14 -46 16 -9 30 -22 30 -30 0 -11 28 -13 158 -12 l157 2 0 30
c0 17 3 31 8 33 17 5 27 1 27 -13 0 -8 4 -15 9 -15 5 0 11 -10 14 -21 5 -17
11 -20 29 -15 13 3 47 6 76 6 l52 0 0 39 c0 21 -6 44 -14 50 -19 16 -28 0 -24
-42 3 -27 -1 -33 -20 -35 -21 -3 -23 0 -21 30 2 25 -4 44 -25 71 -30 40 -28
57 9 57 15 0 26 -7 30 -20 8 -26 40 -26 59 1 13 19 55 24 49 6 -2 -4 -3 -34
-3 -67 0 -47 -3 -60 -15 -60 -8 0 -15 -7 -15 -15 0 -10 11 -15 35 -15 l34 0
-4 2692 c-3 1481 -7 3487 -10 4458 -3 971 -5 2196 -5 2723 l0 958 -1462 -3
c-805 -2 -1868 -4 -2363 -6z m-3776 -231 c15 -15 33 -49 40 -74 12 -41 11 -48
-5 -71 -11 -14 -27 -26 -36 -26 -10 0 -33 -13 -51 -30 -33 -29 -97 -44 -81
-19 3 6 17 9 30 6 36 -7 30 20 -7 28 -17 4 -44 20 -59 37 l-29 30 -33 -25
c-45 -34 -84 -27 -90 15 -7 48 29 74 182 132 84 32 105 32 139 -3z m2888 -101
c16 -31 18 -412 3 -440 -7 -13 -5 -29 6 -56 13 -31 15 -71 11 -247 -5 -204
-13 -255 -36 -218 -9 14 -24 117 -26 176 -1 17 -7 82 -15 146 -10 88 -10 124
-2 149 7 19 8 39 3 48 -5 10 -12 82 -15 162 -4 80 -9 168 -12 196 -11 94 48
153 83 84z m-1301 -750 c18 -7 30 -7 40 0 9 9 15 6 24 -9 6 -12 20 -21 32 -21
14 0 47 -27 91 -72 56 -58 71 -81 76 -113 5 -31 11 -40 25 -38 10 0 26 -7 37
-18 21 -21 25 -34 8 -23 -27 17 13 -70 82 -175 27 -41 49 -79 49 -85 0 -6 9
-22 20 -36 23 -30 26 -78 5 -86 -8 -4 -15 -12 -15 -19 0 -8 -4 -16 -9 -20 -9
-5 -28 22 -53 78 -7 15 -18 27 -25 27 -7 0 -13 5 -13 10 0 11 -9 20 -81 85
-43 39 -45 40 -117 39 -41 -1 -77 -6 -81 -12 -3 -5 -39 -12 -79 -15 -41 -3
-76 -8 -80 -11 -3 -3 1 -6 9 -6 24 -1 -23 -23 -61 -30 -37 -6 -50 -32 -34 -68
7 -16 9 -23 13 -37 0 -3 0 -6 -1 -8 -2 -2 5 -15 15 -30 10 -15 15 -32 12 -37
-9 -15 4 -50 19 -50 7 0 27 -7 44 -16 17 -8 48 -18 68 -21 31 -5 40 -2 56 18
13 16 21 20 25 12 2 -7 14 -13 24 -13 14 0 18 4 13 13 -5 7 -1 6 10 -3 10 -8
14 -15 10 -16 -5 -1 -21 -5 -36 -8 -16 -4 -28 -11 -28 -17 0 -6 7 -9 15 -5 8
3 15 1 15 -4 0 -6 -5 -10 -12 -10 -9 0 -9 -3 -1 -11 15 -15 135 -7 141 9 2 7
10 12 18 12 8 0 14 10 14 21 0 20 4 21 43 15 39 -7 41 -6 22 8 -17 14 -18 17
-5 26 17 12 73 5 78 -10 2 -6 10 -10 18 -10 8 0 14 -10 14 -25 0 -14 -4 -25
-9 -25 -6 0 -10 -8 -10 -17 0 -45 -21 -175 -31 -194 -7 -11 -9 -30 -6 -42 3
-12 0 -27 -6 -34 -8 -10 -6 -13 6 -13 9 0 16 -4 16 -10 0 -5 -7 -10 -16 -10
-8 0 -12 -5 -9 -11 4 -5 -1 -20 -12 -31 -16 -19 -37 -34 -121 -90 -14 -9 -31
-25 -36 -36 -17 -29 -56 -76 -60 -71 -4 4 5 60 22 145 10 47 0 74 -27 74 -10
0 -24 6 -30 14 -7 8 -35 17 -63 21 -28 4 -67 14 -87 23 -20 9 -44 16 -53 17
-24 0 -23 19 1 23 20 3 71 55 71 72 0 5 -13 25 -30 43 -26 30 -33 33 -66 28
-48 -8 -55 -27 -10 -27 45 0 79 -29 65 -55 -8 -16 -21 -19 -76 -19 -56 0 -71
-4 -101 -26 -28 -22 -39 -25 -61 -18 -65 23 -71 132 -10 198 31 33 17 171 -21
211 -21 22 -30 59 -9 38 7 -7 21 -8 45 0 45 14 46 43 2 52 -18 4 -46 16 -61
27 -15 11 -34 21 -42 22 -8 1 -22 9 -32 18 -10 9 -29 19 -43 23 -69 19 -109
39 -113 56 -3 10 -16 23 -30 28 -19 7 -24 15 -20 30 3 13 1 21 -7 21 -17 0 -8
94 14 135 8 17 17 38 20 48 4 11 15 17 36 17 33 0 36 6 15 34 -14 19 -12 21
37 42 49 20 74 44 48 44 -6 0 -8 5 -5 10 4 7 12 7 24 0 21 -11 32 -4 24 16 -4
11 4 13 38 10 37 -3 91 -1 321 12 15 1 39 -3 54 -8z m1322 -342 c-3 -24 -1
-53 4 -66 10 -29 13 -141 4 -170 -10 -30 -46 -39 -63 -16 -11 15 -13 47 -10
146 3 70 8 131 12 137 3 6 18 11 32 11 24 0 25 -2 21 -42z m-575 -478 c26 -76
23 -151 -8 -235 -14 -38 -25 -82 -25 -97 0 -38 -35 -68 -80 -68 -58 0 -74 18
-66 73 4 26 12 49 17 53 6 3 4 11 -6 18 -14 10 -14 20 -3 91 8 50 21 93 35
114 29 43 29 54 1 46 -20 -6 -18 -2 12 29 29 31 41 36 70 34 33 -3 36 -6 53
-58z m-1151 14 c3 -3 -3 -23 -13 -44 -11 -21 -19 -47 -19 -57 0 -10 -9 -31
-20 -48 -26 -39 -26 -89 0 -115 11 -11 15 -20 9 -20 -17 0 -119 -53 -119 -62
0 -4 -13 -8 -29 -8 -35 0 -42 -13 -50 -99 -6 -64 -27 -94 -37 -54 -3 11 -20
25 -39 32 -18 6 -41 24 -51 38 -16 26 -16 27 4 41 22 15 30 42 12 42 -5 0 -10
9 -10 20 0 12 -6 31 -14 43 -8 13 -16 64 -19 132 -5 97 -3 113 13 133 20 24
40 29 40 9 0 -7 23 -18 53 -25 67 -15 82 -15 120 3 78 36 155 54 169 39z m218
-419 c19 -4 40 -11 45 -15 10 -8 16 -10 35 -10 6 0 10 -5 10 -11 0 -6 -7 -8
-16 -5 -9 4 -25 4 -36 0 -15 -4 -17 -9 -7 -20 6 -8 17 -14 25 -14 19 0 27 -19
15 -34 -6 -7 -8 -15 -6 -18 11 -10 97 12 125 32 31 22 64 27 57 8 -2 -7 2 -17
10 -23 10 -8 11 -22 1 -72 -6 -36 -17 -63 -23 -63 -7 0 -23 -8 -36 -19 -13
-10 -30 -16 -36 -14 -7 3 -13 0 -13 -5 0 -12 -62 -22 -90 -15 -12 3 -20 13
-19 22 2 9 -1 34 -5 56 l-7 41 -77 3 c-54 2 -82 7 -95 19 -16 14 -17 14 -12 0
4 -9 -2 -24 -13 -34 -11 -11 -22 -35 -26 -56 -7 -39 -22 -50 -55 -41 -36 9
-92 41 -107 60 -25 33 -14 113 16 113 10 0 20 6 22 12 3 9 9 8 22 -5 10 -9 26
-17 37 -17 11 0 33 -7 48 -15 28 -14 28 -14 52 33 24 46 24 47 72 44 58 -4 62
13 5 22 l-43 7 24 18 c21 16 22 19 6 25 -17 6 -17 7 1 21 17 12 22 11 39 -5
11 -10 36 -21 55 -25z m5879 -214 c16 -22 18 -31 9 -35 -10 -5 -9 -8 2 -13 21
-9 106 -102 122 -133 7 -14 21 -33 30 -44 21 -24 34 -94 19 -109 -17 -17 -13
-42 9 -62 15 -14 20 -29 18 -54 -3 -35 -4 -36 -57 -44 -59 -8 -91 7 -91 45 0
13 -7 18 -25 18 -30 0 -85 26 -85 40 0 6 -7 10 -15 10 -8 0 -18 8 -23 18 -16
31 -44 186 -40 227 l3 40 25 -28 c14 -16 27 -37 30 -48 5 -20 5 -20 30 1 17
14 32 19 48 15 21 -5 23 -3 17 12 -4 10 -11 30 -17 45 -7 18 -18 28 -36 30
-25 3 -27 7 -28 51 -2 39 1 47 16 47 10 0 28 -13 39 -29z m-5144 -277 c0 -74
-3 -86 -51 -189 -29 -60 -59 -132 -68 -160 -8 -27 -22 -70 -30 -95 -8 -25 -26
-79 -41 -120 -107 -300 -242 -809 -320 -1210 -63 -322 -72 -354 -141 -497 -37
-76 -71 -133 -79 -133 -7 0 -15 -10 -17 -22 -2 -15 -11 -23 -29 -25 -33 -4
-45 20 -21 43 17 17 21 56 24 199 2 115 0 127 -21 120 -12 -3 -21 0 -25 11 -8
22 3 37 24 31 23 -6 34 18 20 43 -6 10 -10 34 -9 52 0 27 2 30 9 13 7 -16 9
-11 9 21 1 23 4 76 8 119 5 59 3 76 -6 71 -6 -4 -11 -13 -10 -19 1 -7 1 -47 0
-91 -1 -61 -4 -76 -13 -68 -9 7 -13 37 -12 89 1 43 -3 83 -7 88 -4 6 -9 44
-11 85 -2 41 -7 74 -11 72 -5 -2 -19 8 -33 23 -25 27 -31 59 -14 70 8 5 7 11
-1 21 -9 11 -8 14 2 14 8 0 6 5 -5 13 -14 10 -17 23 -14 45 3 24 1 31 -10 30
-8 -2 -17 3 -20 11 -3 10 1 12 17 8 20 -5 22 -2 17 21 -3 15 -8 45 -12 67 -4
21 -16 47 -28 56 -20 16 -20 18 -4 36 15 17 16 24 4 63 -7 25 -16 62 -19 83
-5 32 -3 37 13 37 25 0 35 -17 20 -35 -13 -15 -5 -71 12 -93 6 -7 12 -26 14
-42 2 -17 11 -44 20 -61 10 -21 12 -35 6 -41 -12 -12 6 -60 19 -52 4 2 7 -5 6
-16 -1 -11 -6 -20 -12 -20 -5 0 1 -9 14 -19 l24 -18 -27 -7 c-26 -6 -35 -29
-16 -41 6 -4 8 -11 5 -16 -4 -5 -1 -9 4 -9 6 0 11 7 11 15 0 8 5 15 11 15 6 0
9 -9 6 -20 -4 -17 -2 -18 15 -9 24 13 27 10 17 -21 -4 -14 -7 -19 -8 -12 -1
16 -21 16 -21 -1 0 -21 20 -35 41 -30 18 5 19 11 13 62 -4 34 -14 64 -26 77
-19 22 -19 22 3 38 22 15 22 17 11 107 -6 50 -15 96 -21 102 -5 7 -21 52 -36
100 -27 86 -27 89 -10 126 9 21 41 63 71 92 l54 53 -22 23 c-22 23 -58 31 -58
13 0 -5 -4 -10 -10 -10 -14 0 -13 27 1 32 17 6 -7 40 -45 65 -48 33 -144 19
-197 -29 -32 -30 -32 -31 -16 -57 62 -100 61 -95 62 -271 0 -154 -2 -173 -33
-295 -78 -310 -107 -544 -98 -792 3 -101 4 -183 1 -183 -29 0 -142 366 -156
505 -20 211 -4 794 26 910 9 33 32 84 52 113 l37 54 -12 96 c-19 163 -25 289
-14 296 5 3 15 -14 21 -40 7 -25 19 -56 27 -69 18 -28 89 -78 113 -80 24 -2
83 -27 99 -42 7 -7 17 -13 22 -13 13 0 32 39 25 50 -3 6 5 15 19 22 32 14 33
28 4 29 -18 1 -16 3 10 12 23 7 39 22 53 48 13 26 24 37 34 33 11 -5 13 -2 9
10 -5 13 1 16 30 16 20 0 36 5 36 11 0 5 5 7 10 4 6 -3 10 -11 10 -16 0 -6 -4
-7 -10 -4 -5 3 -10 -1 -10 -10 0 -12 6 -15 23 -9 32 10 47 24 47 45 0 12 5 16
15 12 9 -3 23 1 33 8 23 18 42 29 164 90 158 79 182 89 200 89 9 0 20 5 23 10
4 6 11 8 16 4 6 -3 3 -12 -8 -20 -10 -7 -13 -14 -6 -14 19 0 143 128 155 161
18 53 33 28 33 -57z m5082 -956 c21 -28 33 -124 27 -213 -4 -49 -9 -134 -11
-187 -3 -60 -8 -98 -15 -98 -6 0 -6 -6 2 -15 9 -11 9 -15 1 -15 -7 0 -19 -16
-27 -35 -16 -40 -47 -47 -64 -15 -12 23 16 526 31 568 9 24 41 30 56 10z m-3
-714 c-7 -271 -5 -255 -32 -279 -18 -17 -23 -28 -17 -42 21 -48 28 -274 11
-338 -8 -27 -17 -115 -20 -194 -4 -106 -10 -148 -20 -160 -13 -15 -13 -22 0
-61 11 -32 14 -60 9 -95 -4 -27 -7 -69 -6 -93 2 -49 -33 -122 -58 -122 -9 0
-24 7 -35 15 -17 13 -18 24 -11 152 4 78 13 152 21 171 10 24 12 57 8 120 -4
48 -1 152 6 232 6 80 14 177 16 215 3 39 8 77 12 85 3 8 6 69 7 135 3 268 4
274 24 294 15 15 27 17 52 12 32 -7 34 -9 33 -47z m-4929 -254 c109 -53 109
-207 -1 -261 -97 -47 -188 7 -200 117 -7 67 17 112 76 142 54 27 72 27 125 2z
m-1987 -3315 c8 -8 2 -130 -8 -165 -5 -17 -34 -62 -64 -100 -30 -37 -82 -112
-114 -166 -32 -54 -64 -100 -69 -101 -7 -3 -13 51 -17 154 -3 87 -9 184 -12
216 -7 72 1 117 26 149 18 24 22 24 136 22 64 -2 119 -6 122 -9z m3142 -490
c69 -22 408 -112 473 -125 32 -6 57 -17 57 -24 0 -6 -18 -48 -39 -91 -22 -44
-58 -119 -80 -167 -39 -84 -52 -100 -66 -78 -3 6 -13 10 -21 10 -8 0 -12 -5
-9 -10 10 -16 -15 -79 -36 -90 -18 -10 -26 -1 -12 14 4 4 6 22 5 40 -2 20 3
39 12 49 12 12 13 17 3 26 -10 8 -20 -5 -42 -54 -16 -36 -39 -75 -52 -87 -13
-12 -31 -47 -40 -78 -8 -30 -20 -61 -25 -67 -19 -24 -29 -13 -24 25 3 20 3 28
0 18 -4 -11 -21 -34 -39 -53 -18 -19 -41 -50 -50 -69 -9 -19 -22 -34 -29 -34
-8 0 -19 -7 -27 -16 -7 -8 -27 -23 -45 -32 -18 -9 -45 -32 -58 -51 l-26 -34
-15 36 c-24 58 -20 73 28 101 69 41 123 46 85 8 -15 -15 -3 -16 23 -2 10 6 19
16 19 23 0 7 16 29 35 49 19 20 35 41 35 46 0 20 -29 20 -42 0 -12 -18 -17
-19 -36 -9 -22 12 -32 -1 -12 -14 13 -8 -6 -35 -24 -35 -6 0 -37 -16 -70 -35
-32 -20 -60 -35 -61 -33 -2 2 -19 43 -39 92 -20 49 -44 99 -55 110 -28 31 -47
74 -60 134 -14 68 -14 72 5 72 8 0 13 4 9 10 -3 5 -12 7 -20 3 -24 -9 -17 17
10 39 18 14 25 29 25 54 0 19 6 45 14 57 8 12 17 38 20 57 7 33 6 34 -9 16 -8
-11 -15 -28 -15 -37 0 -10 -11 -35 -25 -55 l-25 -37 0 42 c0 22 4 41 9 41 5 0
14 14 20 30 8 23 23 36 63 54 29 13 65 26 81 30 37 9 34 18 -13 51 -22 15 -40
31 -40 36 0 11 60 56 90 67 26 9 88 1 160 -23z m1125 -2022 c34 -16 46 -45 25
-58 -5 -3 -10 -15 -10 -25 0 -17 -7 -19 -67 -17 -60 2 -68 0 -65 -16 4 -26
-24 -32 -67 -12 -31 13 -43 15 -60 6 -12 -7 -26 -9 -31 -6 -15 10 -12 35 5 35
8 0 16 7 16 15 4 45 9 49 45 30 34 -17 60 -19 69 -5 3 6 19 10 35 10 44 0 60
10 60 36 0 29 0 29 45 7z"/>
</g>
</svg>
